<svg width="22" height="28" viewBox="0 0 22 28" fill="none" xmlns="http://www.w3.org/2000/svg">
<g clip-path="url(#clip0_59_58)">
<rect width="22" height="26.562" transform="translate(0 0.970825)" fill="black"/>
<rect width="22" height="26.562" transform="translate(0 0.970825)" fill="black"/>
<path d="M13.796 6.50451C14.6913 6.71542 15.5142 7.24411 16.1592 8.0229C16.8042 8.8017 17.2421 9.79518 17.4168 10.8762M13.796 2.07751C15.6561 2.32702 17.3908 3.33276 18.715 4.92962C20.0393 6.52647 20.8745 8.61952 21.0835 10.8651M20.1668 19.697V23.0172C20.1678 23.3255 20.1156 23.6306 20.0133 23.913C19.911 24.1954 19.761 24.4489 19.5729 24.6573C19.3848 24.8657 19.1627 25.0243 18.9208 25.123C18.679 25.2218 18.4227 25.2585 18.1685 25.2307C15.3477 24.8607 12.6382 23.6969 10.2576 21.833C8.04282 20.1338 6.16503 17.8666 4.75764 15.1925C3.20846 12.3052 2.24436 9.01794 1.94348 5.59698C1.92057 5.29093 1.95069 4.98247 2.03193 4.69124C2.11317 4.40002 2.24375 4.13241 2.41534 3.90545C2.58694 3.67849 2.7958 3.49715 3.02862 3.37299C3.26144 3.24883 3.51312 3.18455 3.76764 3.18426H6.51764C6.96251 3.17898 7.39378 3.36918 7.73109 3.71941C8.0684 4.06965 8.28871 4.55602 8.35097 5.08787C8.46705 6.15043 8.6823 7.19372 8.99264 8.19784C9.11597 8.59397 9.14267 9.02449 9.06956 9.43838C8.99645 9.85226 8.8266 10.2322 8.58014 10.5331L7.41598 11.9387C8.7209 14.7095 10.6211 17.0036 12.916 18.5792L14.0801 17.1736C14.3294 16.876 14.644 16.671 14.9868 16.5827C15.3296 16.4944 15.6862 16.5266 16.0143 16.6755C16.846 17.0502 17.7101 17.3101 18.5901 17.4503C19.0354 17.5261 19.4421 17.7969 19.7328 18.2112C20.0235 18.6254 20.178 19.1542 20.1668 19.697Z" stroke="white" stroke-width="2" stroke-linecap="round" stroke-linejoin="round"/>
</g>
<defs>
<clipPath id="clip0_59_58">
<rect width="22" height="26.562" fill="white" transform="translate(0 0.970825)"/>
</clipPath>
</defs>
</svg>
