<svg width="40" height="40" viewBox="0 0 40 40" fill="none" xmlns="http://www.w3.org/2000/svg">
<path d="M15.0002 36.6667C15.9206 36.6667 16.6668 35.9205 16.6668 35C16.6668 34.0796 15.9206 33.3334 15.0002 33.3334C14.0797 33.3334 13.3335 34.0796 13.3335 35C13.3335 35.9205 14.0797 36.6667 15.0002 36.6667Z" stroke="white" stroke-width="2" stroke-linecap="round" stroke-linejoin="round"/>
<path d="M33.3332 36.6667C34.2536 36.6667 34.9998 35.9205 34.9998 35C34.9998 34.0796 34.2536 33.3334 33.3332 33.3334C32.4127 33.3334 31.6665 34.0796 31.6665 35C31.6665 35.9205 32.4127 36.6667 33.3332 36.6667Z" stroke="white" stroke-width="2" stroke-linecap="round" stroke-linejoin="round"/>
<path d="M1.6665 1.66663H8.33317L12.7998 23.9833C12.9522 24.7506 13.3697 25.4399 13.9791 25.9305C14.5885 26.421 15.351 26.6816 16.1332 26.6666H32.3332C33.1153 26.6816 33.8779 26.421 34.4873 25.9305C35.0967 25.4399 35.5141 24.7506 35.6665 23.9833L38.3332 9.99996H9.99984" stroke="white" stroke-width="2" stroke-linecap="round" stroke-linejoin="round"/>
</svg>
