<svg width="295" height="65" viewBox="0 0 295 65" fill="none" xmlns="http://www.w3.org/2000/svg">
<path d="M170.955 44.5455V62H168.909L159.398 48.2955H159.227V62H157.114V44.5455H159.159L168.705 58.2841H168.875V44.5455H170.955ZM175.184 62V44.5455H185.718V46.4205H177.298V52.3182H185.173V54.1932H177.298V60.125H185.854V62H175.184ZM192.698 62L187.925 44.5455H190.073L193.721 58.7614H193.891L197.607 44.5455H199.994L203.71 58.7614H203.88L207.528 44.5455H209.675L204.903 62H202.721L198.869 48.0909H198.732L194.88 62H192.698ZM217.559 44.5455H219.979L224.82 52.6932H225.025L229.866 44.5455H232.286L225.979 54.8068V62H223.866V54.8068L217.559 44.5455ZM248.927 53.2727C248.927 55.1136 248.594 56.7045 247.93 58.0455C247.265 59.3864 246.353 60.4205 245.194 61.1477C244.035 61.875 242.711 62.2386 241.222 62.2386C239.734 62.2386 238.41 61.875 237.251 61.1477C236.092 60.4205 235.18 59.3864 234.515 58.0455C233.85 56.7045 233.518 55.1136 233.518 53.2727C233.518 51.4318 233.85 49.8409 234.515 48.5C235.18 47.1591 236.092 46.125 237.251 45.3977C238.41 44.6705 239.734 44.3068 241.222 44.3068C242.711 44.3068 244.035 44.6705 245.194 45.3977C246.353 46.125 247.265 47.1591 247.93 48.5C248.594 49.8409 248.927 51.4318 248.927 53.2727ZM246.881 53.2727C246.881 51.7614 246.629 50.4858 246.123 49.446C245.623 48.4062 244.944 47.6193 244.086 47.0852C243.234 46.5511 242.279 46.2841 241.222 46.2841C240.165 46.2841 239.208 46.5511 238.35 47.0852C237.498 47.6193 236.819 48.4062 236.313 49.446C235.813 50.4858 235.563 51.7614 235.563 53.2727C235.563 54.7841 235.813 56.0597 236.313 57.0994C236.819 58.1392 237.498 58.9261 238.35 59.4602C239.208 59.9943 240.165 60.2614 241.222 60.2614C242.279 60.2614 243.234 59.9943 244.086 59.4602C244.944 58.9261 245.623 58.1392 246.123 57.0994C246.629 56.0597 246.881 54.7841 246.881 53.2727ZM252.481 62V44.5455H258.379C259.742 44.5455 260.862 44.7784 261.737 45.2443C262.612 45.7045 263.259 46.3381 263.68 47.1449C264.1 47.9517 264.31 48.8693 264.31 49.8977C264.31 50.9261 264.1 51.8381 263.68 52.6335C263.259 53.429 262.614 54.054 261.745 54.5085C260.876 54.9574 259.765 55.1818 258.413 55.1818H253.64V53.2727H258.344C259.276 53.2727 260.026 53.1364 260.594 52.8636C261.168 52.5909 261.583 52.2045 261.839 51.7045C262.1 51.1989 262.231 50.5966 262.231 49.8977C262.231 49.1989 262.1 48.5881 261.839 48.0653C261.577 47.5426 261.16 47.1392 260.586 46.8551C260.012 46.5653 259.254 46.4205 258.31 46.4205H254.594V62H252.481ZM260.697 54.1591L264.992 62H262.538L258.31 54.1591H260.697ZM267.832 62V44.5455H269.946V53.2045H270.151L277.991 44.5455H280.753L273.423 52.4205L280.753 62H278.196L272.128 53.8864L269.946 56.3409V62H267.832Z" fill="white"/>
<path d="M2.52841 9.90909H10.1136L18.125 29.4545H18.4659L26.4773 9.90909H34.0625V39H28.0966V20.0653H27.8551L20.3267 38.858H16.2642L8.7358 19.9943H8.49432V39H2.52841V9.90909ZM47.3442 39H40.7533L50.7959 9.90909H58.722L68.7504 39H62.1595L54.8726 16.5568H54.6453L47.3442 39ZM46.9322 27.5653H62.5004V32.3665H46.9322V27.5653ZM70.7786 9.90909H77.6678L84.3013 22.4375H84.5854L91.2189 9.90909H98.1081L87.4973 28.7159V39H81.3893V28.7159L70.7786 9.90909ZM104.667 39V9.90909H116.315C118.455 9.90909 120.24 10.2263 121.67 10.8608C123.1 11.4953 124.175 12.3759 124.895 13.5028C125.614 14.6203 125.974 15.9081 125.974 17.3665C125.974 18.5028 125.747 19.5019 125.292 20.3636C124.838 21.2159 124.213 21.9167 123.417 22.4659C122.631 23.0057 121.732 23.3892 120.719 23.6165V23.9006C121.827 23.9479 122.863 24.2604 123.829 24.8381C124.805 25.4157 125.596 26.2254 126.202 27.267C126.808 28.2992 127.111 29.5303 127.111 30.9602C127.111 32.5038 126.727 33.8816 125.96 35.0938C125.203 36.2964 124.08 37.2481 122.594 37.9489C121.107 38.6496 119.274 39 117.096 39H104.667ZM110.818 33.9716H115.832C117.546 33.9716 118.796 33.6449 119.582 32.9915C120.368 32.3286 120.761 31.4479 120.761 30.3494C120.761 29.5445 120.567 28.8343 120.179 28.2188C119.791 27.6032 119.237 27.1203 118.517 26.7699C117.807 26.4195 116.959 26.2443 115.974 26.2443H110.818V33.9716ZM110.818 22.0824H115.378C116.221 22.0824 116.969 21.9356 117.622 21.642C118.285 21.339 118.806 20.9129 119.185 20.3636C119.573 19.8144 119.767 19.1562 119.767 18.3892C119.767 17.3381 119.393 16.4905 118.645 15.8466C117.906 15.2027 116.855 14.8807 115.491 14.8807H110.818V22.0824ZM134.313 39V9.90909H153.915V14.9801H140.463V21.9119H152.907V26.983H140.463V33.929H153.972V39H134.313ZM162.005 39V9.90909H168.156V33.929H180.627V39H162.005ZM187.9 39V9.90909H194.051V33.929H206.522V39H187.9ZM219.946 9.90909V39H213.796V9.90909H219.946ZM252.539 9.90909V39H247.226L234.57 20.6903H234.357V39H228.207V9.90909H233.604L246.161 28.2045H246.417V9.90909H252.539ZM260.821 39V9.90909H280.423V14.9801H266.971V21.9119H279.414V26.983H266.971V33.929H280.48V39H260.821Z" fill="white"/>
</svg>
