<svg width="265" height="53" viewBox="0 0 265 53" fill="none" xmlns="http://www.w3.org/2000/svg">
<path d="M0 20C0 8.9543 8.95431 0 20 0L214 0V53L20 53C8.9543 53 0 44.0457 0 33L0 20Z" fill="white"/>
<path d="M214 0H245C256.046 0 265 8.95431 265 20V33C265 44.0457 256.046 53 245 53H214V0Z" fill="#D5D1D1"/>
<path d="M237.007 10.0311C229.835 10.0311 224 15.7968 224 22.8845C224 29.9722 229.835 35.7378 237.007 35.7378C239.2 35.7378 241.355 35.2237 243.176 34.2322C243.322 34.4056 243.484 34.5654 243.66 34.7096L247.376 38.3819C247.719 38.7635 248.137 39.0717 248.606 39.2877C249.074 39.5037 249.581 39.6228 250.098 39.6379C250.614 39.6529 251.128 39.5634 251.608 39.3751C252.088 39.1867 252.524 38.9033 252.89 38.5423C253.255 38.1814 253.542 37.7505 253.732 37.276C253.923 36.8016 254.014 36.2937 253.998 35.7834C253.983 35.2732 253.863 34.7714 253.644 34.3088C253.425 33.8463 253.114 33.4328 252.727 33.0937L249.011 29.4213C248.83 29.2424 248.631 29.0824 248.416 28.9439C249.42 27.1444 250.052 25.0512 250.052 22.8477C250.052 15.76 244.217 9.99438 237.044 9.99438L237.007 10.0311ZM237.007 13.7035C242.173 13.7035 246.298 17.7798 246.298 22.8845C246.298 25.3082 245.406 27.5484 243.845 29.201C243.808 29.2377 243.771 29.2744 243.734 29.3111C243.558 29.4553 243.397 29.6151 243.251 29.7886C241.616 31.2575 239.386 32.1022 236.97 32.1022C231.804 32.1022 227.679 28.0258 227.679 22.9212C227.679 17.8166 231.804 13.7402 236.97 13.7402L237.007 13.7035Z" fill="black"/>
</svg>
