<svg width="30" height="31" viewBox="0 0 30 31" fill="none" xmlns="http://www.w3.org/2000/svg">
<path d="M13.0072 1.03111C5.83468 1.03111 0 6.79676 0 13.8845C0 20.9722 5.83468 26.7378 13.0072 26.7378C15.1999 26.7378 17.3554 26.2237 19.1764 25.2322C19.3223 25.4056 19.484 25.5654 19.6595 25.7096L23.3759 29.3819C23.719 29.7635 24.1375 30.0717 24.6056 30.2877C25.0736 30.5037 25.5814 30.6228 26.0978 30.6379C26.6141 30.6529 27.1282 30.5634 27.6083 30.3751C28.0884 30.1867 28.5245 29.9033 28.8897 29.5423C29.255 29.1814 29.5418 28.7505 29.7324 28.276C29.9231 27.8016 30.0136 27.2937 29.9984 26.7834C29.9832 26.2732 29.8626 25.7714 29.644 25.3088C29.4255 24.8463 29.1136 24.4328 28.7274 24.0937L25.0111 20.4213C24.83 20.2424 24.6308 20.0824 24.4165 19.9439C25.4199 18.1444 26.0516 16.0512 26.0516 13.8477C26.0516 6.76004 20.217 0.994385 13.0444 0.994385L13.0072 1.03111ZM13.0072 4.7035C18.173 4.7035 22.2981 8.77985 22.2981 13.8845C22.2981 16.3082 21.4062 18.5484 19.8453 20.201C19.8082 20.2377 19.771 20.2744 19.7338 20.3111C19.5583 20.4553 19.3966 20.6151 19.2507 20.7886C17.6155 22.2575 15.3857 23.1022 12.9701 23.1022C7.80435 23.1022 3.67919 19.0258 3.67919 13.9212C3.67919 8.81657 7.80435 4.74022 12.9701 4.74022L13.0072 4.7035Z" fill="black"/>
</svg>
